<mxfile host="app.diagrams.net" agent="Mozilla/5.0 (X11; Linux x86_64) AppleWebKit/537.36 (KHTML, like Gecko) Chrome/120.0.0.0 Safari/537.36" version="27.2.0">
  <diagram name="Page-1" id="fcXE6VW2l_xlgwhDs_2k">
    <mxGraphModel dx="1426" dy="789" grid="1" gridSize="10" guides="1" tooltips="1" connect="1" arrows="1" fold="1" page="1" pageScale="1" pageWidth="850" pageHeight="1100" background="#000000" math="0" shadow="0">
      <root>
        <mxCell id="0" />
        <mxCell id="1" parent="0" />
        <mxCell id="rjUGybNKrxxeA_Nx0cuD-37" value="" style="group" parent="1" vertex="1" connectable="0">
          <mxGeometry x="1504" y="20" width="160" height="800" as="geometry" />
        </mxCell>
        <mxCell id="rjUGybNKrxxeA_Nx0cuD-6" value="Service" style="shape=umlLifeline;perimeter=lifelinePerimeter;whiteSpace=wrap;container=1;dropTarget=0;collapsible=0;recursiveResize=0;outlineConnect=0;portConstraint=eastwest;newEdgeStyle={&quot;edgeStyle&quot;:&quot;elbowEdgeStyle&quot;,&quot;elbow&quot;:&quot;vertical&quot;,&quot;curved&quot;:0,&quot;rounded&quot;:0};size=65;fillColor=#4798CA;strokeColor=#4798CA;rounded=1;fontSize=19;fontColor=#F7F7F7;align=left;spacingLeft=65;strokeWidth=4;fontStyle=1" parent="rjUGybNKrxxeA_Nx0cuD-37" vertex="1">
          <mxGeometry width="160" height="800" as="geometry" />
        </mxCell>
        <mxCell id="rjUGybNKrxxeA_Nx0cuD-35" value="" style="shape=image;verticalLabelPosition=bottom;labelBackgroundColor=default;verticalAlign=top;aspect=fixed;imageAspect=0;editableCssRules=.*;image=data:image/svg+xml,PHN2ZyB4bWxucz0iaHR0cDovL3d3dy53My5vcmcvMjAwMC9zdmciIHZpZXdCb3g9IjUuMjgyMDA5MTI0NzU1ODU5IDEyLjkxNDI5NzEwMzg4MTgzNiA4OS40MjEwOTY4MDE3NTc4MSA3NC4xMzYwMDE1ODY5MTQwNiIgdmVyc2lvbj0iMS4xIiB3aWR0aD0iODkuNDIxMDk2ODAxNzU3ODEiIGhlaWdodD0iNzQuMTM2MDAxNTg2OTE0MDYiPiYjeGE7ICA8c3R5bGU+LmZpbGwgeyBmaWxsOiByZ2IoMjU1LCAyNTUsIDI1NSk7IH0gPC9zdHlsZT4mI3hhOyA8cGF0aCBmaWxsLXJ1bGU9ImV2ZW5vZGQiIGQ9Im00NC40NjEgMzcuNTMxYzMuMDQzLTYuNjk5MiA5Ljc5NjktMTEuMzU5IDE3LjYyOS0xMS4zNTkgMTAuNjggMCAxOS4zNTIgOC42NzE5IDE5LjM1MiAxOS4zNTIgMCA0LjkzMzYtMS44NTE2IDkuNDQxNC00Ljg5NDUgMTIuODU5LTEuOTc2Ni0xLjE5OTItNC4yMDctMi4wMTk1LTYuNTg5OC0yLjM1OTQtMy40NzI3LTEwLjcyNy0xMy41NDctMTguNDk2LTI1LjQyMi0xOC40OTZoLTAuMDcwMzEyem0xOS41ODItMTcuMjczYzAgMS4wNzgxLTAuODc1IDEuOTUzMS0xLjk1MzEgMS45NTMxcy0xLjk1MzEtMC44NzUtMS45NTMxLTEuOTUzMXYtNS4zOTA2YzAtMS4wNzgxIDAuODc1LTEuOTUzMSAxLjk1MzEtMS45NTMxczEuOTUzMSAwLjg3NSAxLjk1MzEgMS45NTMxem0xMi4zNzEgNC4zNTk0Yy0wLjUzOTA2IDAuOTMzNTktMS43MzQ0IDEuMjUzOS0yLjY2OCAwLjcxNDg0LTAuOTMzNTktMC41MzkwNi0xLjI1MzktMS43MzQ0LTAuNzE0ODQtMi42NjhsMi42OTUzLTQuNjY4YzAuNTM5MDYtMC45MzM1OSAxLjczNDQtMS4yNTM5IDIuNjY4LTAuNzE0ODQgMC45MzM1OSAwLjUzOTA2IDEuMjUzOSAxLjczNDQgMC43MTQ4NCAyLjY2OHptOC41MzUyIDkuOTYwOWMtMC45MzM1OSAwLjUzOTA2LTIuMTI4OSAwLjIxODc1LTIuNjY4LTAuNzE0ODQtMC41MzkwNi0wLjkzMzU5LTAuMjE4NzUtMi4xMjg5IDAuNzE0ODQtMi42NjhsNC42NjgtMi42OTUzYzAuOTMzNTktMC41MzkwNiAyLjEyODktMC4yMTg3NSAyLjY2OCAwLjcxNDg0IDAuNTM5MDYgMC45MzM1OSAwLjIxODc1IDIuMTI4OS0wLjcxNDg0IDIuNjY4em0yLjQxMDIgMTIuODk1Yy0xLjA3ODEgMC0xLjk1MzEtMC44NzUtMS45NTMxLTEuOTUzMXMwLjg3NS0xLjk1MzEgMS45NTMxLTEuOTUzMWg1LjM5MDZjMS4wNzgxIDAgMS45NTMxIDAuODc1IDEuOTUzMSAxLjk1MzFzLTAuODc1IDEuOTUzMS0xLjk1MzEgMS45NTMxem0tNC4zNTk0IDEyLjM3MWMtMC45MzM1OS0wLjUzOTA2LTEuMjUzOS0xLjczNDQtMC43MTQ4NC0yLjY2OCAwLjUzOTA2LTAuOTMzNTkgMS43MzQ0LTEuMjUzOSAyLjY2OC0wLjcxNDg0bDQuNjY4IDIuNjk1M2MwLjkzMzU5IDAuNTM5MDYgMS4yNTM5IDEuNzM0NCAwLjcxNDg0IDIuNjY4LTAuNTM5MDYgMC45MzM1OS0xLjczNDQgMS4yNTM5LTIuNjY4IDAuNzE0ODR6bS00OC40My0yNy45NjFjLTAuOTMzNTktMC41MzkwNi0xLjI1MzktMS43MzQ0LTAuNzE0ODQtMi42NjggMC41MzkwNi0wLjkzMzU5IDEuNzM0NC0xLjI1MzkgMi42NjgtMC43MTQ4NGw0LjY2OCAyLjY5NTNjMC45MzM1OSAwLjUzOTA2IDEuMjUzOSAxLjczNDQgMC43MTQ4NCAyLjY2OC0wLjUzOTA2IDAuOTMzNTktMS43MzQ0IDEuMjUzOS0yLjY2OCAwLjcxNDg0em0xMC41MDgtMTEuOTM4Yy0wLjUzOTA2LTAuOTMzNTktMC4yMTg3NS0yLjEyODkgMC43MTQ4NC0yLjY2OCAwLjkzMzU5LTAuNTM5MDYgMi4xMjg5LTAuMjE4NzUgMi42NjggMC43MTQ4NGwyLjY5NTMgNC42NjhjMC41MzkwNiAwLjkzMzU5IDAuMjE4NzUgMi4xMjg5LTAuNzE0ODQgMi42NjhzLTIuMTI4OSAwLjIxODc1LTIuNjY4LTAuNzE0ODR6bTIyLjM5MSA2Ny4xMDVoLTQ1LjA4MmMtOS40NDE0IDAtMTcuMTA1LTcuNjY0MS0xNy4xMDUtMTcuMTA1IDAtOS40NDE0IDcuNjY0MS0xNy4xMDUgMTcuMTA1LTE3LjEwNSAwLjc4NTE2IDAgMS41NTQ3IDAuMDU0Njg3IDIuMzA4NiAwLjE1NjI1IDMuOTIxOS02LjkwMjMgMTEuMzQ0LTExLjU1OSAxOS44NDQtMTEuNTU5IDExLjA1NSAwIDIwLjI4NSA3Ljg4MjggMjIuMzY3IDE4LjMyOCAwLjE4NzUtMC4wMDc4MTMgMC4zNzEwOS0wLjAxMTcxOSAwLjU1ODU5LTAuMDExNzE5IDcuNTM1MiAwIDEzLjY0OCA2LjExNzIgMTMuNjQ4IDEzLjY0OCAwIDcuNTM1Mi02LjExNzIgMTMuNjQ4LTEzLjY0OCAxMy42NDh6IiBjbGFzcz0iZmlsbCIvPjwvc3ZnPg==;" parent="rjUGybNKrxxeA_Nx0cuD-37" vertex="1">
          <mxGeometry x="11" y="15.957446808510632" width="42.09" height="35" as="geometry" />
        </mxCell>
        <mxCell id="rjUGybNKrxxeA_Nx0cuD-38" value="" style="group" parent="1" vertex="1" connectable="0">
          <mxGeometry x="1207" y="20" width="160" height="800" as="geometry" />
        </mxCell>
        <mxCell id="rjUGybNKrxxeA_Nx0cuD-5" value="MCP Server" style="shape=umlLifeline;perimeter=lifelinePerimeter;whiteSpace=wrap;container=1;dropTarget=0;collapsible=0;recursiveResize=0;outlineConnect=0;portConstraint=eastwest;newEdgeStyle={&quot;edgeStyle&quot;:&quot;elbowEdgeStyle&quot;,&quot;elbow&quot;:&quot;vertical&quot;,&quot;curved&quot;:0,&quot;rounded&quot;:0};size=65;fillColor=#4798CA;strokeColor=#4798CA;rounded=1;fontSize=19;fontColor=#F7F7F7;verticalAlign=middle;align=left;spacingLeft=65;strokeWidth=4;fontStyle=1" parent="rjUGybNKrxxeA_Nx0cuD-38" vertex="1">
          <mxGeometry width="160" height="800" as="geometry" />
        </mxCell>
        <mxCell id="rjUGybNKrxxeA_Nx0cuD-34" value="" style="shape=image;editableCssRules=.*;verticalLabelPosition=bottom;labelBackgroundColor=default;verticalAlign=top;aspect=fixed;imageAspect=0;editableCssRules=.*;image=data:image/svg+xml,PHN2ZyB4bWxucz0iaHR0cDovL3d3dy53My5vcmcvMjAwMC9zdmciIHZpZXdCb3g9IjEyLjY0NzU5NzMxMjkyNzI0NiAxMi4xNzkyOTc0NDcyMDQ1OSA3NC43MTE0MTA1MjI0NjA5NCA3NS42MjEwMDIxOTcyNjU2MiIgdmVyc2lvbj0iMS4xIiB3aWR0aD0iNzQuNzExNDEwNTIyNDYwOTQiIGhlaWdodD0iNzUuNjIxMDAyMTk3MjY1NjIiPiYjeGE7ICA8c3R5bGU+LmZpbGwgeyBmaWxsOiByZ2IoMjU1LCAyNTUsIDI1NSk7IH0gPC9zdHlsZT4mI3hhOyA8cGF0aCBkPSJtODcuMzU5IDMyLjEyMXYtMTMuMjYyYzAtMy42OTE0LTMtNi42Nzk3LTYuNjc5Ny02LjY3OTdoLTYxLjM1MmMtMy42Nzk3IDAtNi42Nzk3IDMtNi42Nzk3IDYuNjc5N3YxMy4yNWMwIDIuMTQwNiAxLjAxOTUgNC4wNTA4IDIuNTg5OCA1LjI2OTUtMS41NzAzIDEuMjE4OC0yLjU4OTggMy4xMjg5LTIuNTg5OCA1LjI2OTV2MTMuMjVjMCAzLjY5MTQgMyA2LjY3OTcgNi42Nzk3IDYuNjc5N2gyOS4xNzJ2Ny4wNzAzYy0zLjgzOTggMC42NDA2Mi02Ljg3MTEgMy42NzE5LTcuNTExNyA3LjUxMTdoLTIyLjU2NmMtMC44MjgxMiAwLTEuNSAwLjY3MTg4LTEuNSAxLjVzMC42NzE4OCAxLjUgMS41IDEuNWgyMi41N2MwLjcxODc1IDQuMzI4MSA0LjQ4MDUgNy42NDA2IDkuMDExNyA3LjY0MDZzOC4yODkxLTMuMzA4NiA5LjAxMTctNy42NDA2aDIyLjU3OGMwLjgyODEyIDAgMS41LTAuNjcxODggMS41LTEuNXMtMC42NzE4OC0xLjUtMS41LTEuNWgtMjIuNTgyYy0wLjY0MDYyLTMuODM5OC0zLjY3MTktNi44NzExLTcuNTExNy03LjUxMTd2LTcuMDQ2OWgyOS4xOGMzLjY3OTcgMCA2LjY3OTctMyA2LjY3OTctNi42Nzk3di0xMy4yNWMwLTIuMTQwNi0xLjAxOTUtNC4wNTA4LTIuNTg5OC01LjI2OTUgMS41NzAzLTEuMjMwNSAyLjU4OTgtMy4xNDA2IDIuNTg5OC01LjI4MTJ6bS0zMS4yMTkgNDYuNTU5YzAgMy4zOTA2LTIuNzYxNyA2LjE0MDYtNi4xNDA2IDYuMTQwNnMtNi4xNDA2LTIuNzYxNy02LjE0MDYtNi4xNDA2YzAtMy4zNzg5IDIuNzM4My02LjEyODkgNi4xMjExLTYuMTQwNmgwLjAxOTUzMSAwLjAxOTUzMWMzLjM3ODkgMC4wMTE3MTkgNi4xMjExIDIuNzYxNyA2LjEyMTEgNi4xNDA2em0yOC4yMTktNTkuODJ2MTMuMjVjMCAyLjAzMTItMS42NDg0IDMuNjc5Ny0zLjY3OTcgMy42Nzk3aC0wLjY5OTIydi0yMC42MDloMC42OTkyMmMyLjAzMTIgMCAzLjY3OTcgMS42NDg0IDMuNjc5NyAzLjY3OTd6bS02MS4zMjggMTYuOTQxdi0yMC42MjFoNTMuOTQxbC0wLjAwMzkwNiAyMC42MjF6bS03LjM5MDYtMTYuOTQxYzAtMi4wMzEyIDEuNjQ4NC0zLjY3OTcgMy42Nzk3LTMuNjc5N2gwLjY5OTIydjIwLjYyMWgtMC42OTkyMmMtMi4wMzEyIDAtMy42Nzk3LTEuNjQ4NC0zLjY3OTctMy42Nzk3em02OC43MTkgMzcuMDYyYzAgMi4wMzEyLTEuNjQ4NCAzLjY3OTctMy42Nzk3IDMuNjc5N2gtNjEuMzUyYy0yLjAzMTIgMC0zLjY3OTctMS42NDg0LTMuNjc5Ny0zLjY3OTd2LTEzLjI1YzAtMi4wMzEyIDEuNjQ4NC0zLjY3OTcgMy42Nzk3LTMuNjc5N2g2MS4zNTJjMi4wMzEyIDAgMy42Nzk3IDEuNjQ4NCAzLjY3OTcgMy42Nzk3eiIgY2xhc3M9ImZpbGwiLz4mI3hhOyA8cGF0aCBkPSJtMzcuNzUgMjIuNTU5Yy0wLjgyODEyIDAtMS41IDAuNjcxODgtMS41IDEuNXYzLjkxMDJjMCAwLjgyODEyIDAuNjcxODggMS41IDEuNSAxLjVzMS41LTAuNjcxODggMS41LTEuNXYtMy45MTAyYzAtMC44MjgxMi0wLjY3MTg4LTEuNS0xLjUtMS41eiIgY2xhc3M9ImZpbGwiLz4mI3hhOyA8cGF0aCBkPSJtNDQuNzMgMjIuNTU5Yy0wLjgyODEyIDAtMS41IDAuNjcxODgtMS41IDEuNXYzLjkxMDJjMCAwLjgyODEyIDAuNjcxODggMS41IDEuNSAxLjVzMS41LTAuNjcxODggMS41LTEuNXYtMy45MTAyYzAtMC44MjgxMi0wLjY3MTg4LTEuNS0xLjUtMS41eiIgY2xhc3M9ImZpbGwiLz4mI3hhOyA8cGF0aCBkPSJtNjYuMTI5IDI0LjUyaC0xNS40MThjLTAuODI4MTMgMC0xLjUgMC42NzE4OC0xLjUgMS41czAuNjcxODcgMS41IDEuNSAxLjVoMTUuNDIyYzAuODI4MTMgMCAxLjUtMC42NzE4OCAxLjUtMS41LTAuMDAzOTA2LTAuODI4MTItMC42NzE4Ny0xLjUtMS41MDM5LTEuNXoiIGNsYXNzPSJmaWxsIi8+JiN4YTsgPHBhdGggZD0ibTI5LjE4IDQ0LjgyOGMtMC44MjgxMyAwLTEuNSAwLjY3MTg4LTEuNSAxLjV2NS44NzExYzAgMC44MjgxMiAwLjY3MTg3IDEuNSAxLjUgMS41IDAuODI4MTIgMCAxLjUtMC42NzE4OCAxLjUtMS41di01Ljg3MTFjMC0wLjgyODEyLTAuNjY3OTctMS41LTEuNS0xLjV6IiBjbGFzcz0iZmlsbCIvPiYjeGE7IDxwYXRoIGQ9Im03NC41OSA0Ny43MTloLTI0LjU5Yy0wLjgyODEyIDAtMS41IDAuNjcxODgtMS41IDEuNXMwLjY3MTg4IDEuNSAxLjUgMS41aDI0LjU5YzAuODI4MTIgMCAxLjUtMC42NzE4OCAxLjUtMS41cy0wLjY2Nzk3LTEuNS0xLjUtMS41eiIgY2xhc3M9ImZpbGwiLz4mI3hhOyA8cGF0aCBkPSJtNDAuNjk5IDQ0LjgyOGMtMC44MjgxMiAwLTEuNSAwLjY3MTg4LTEuNSAxLjV2NS44NzExYzAgMC44MjgxMiAwLjY3MTg4IDEuNSAxLjUgMS41czEuNS0wLjY3MTg4IDEuNS0xLjV2LTUuODcxMWMwLTAuODI4MTItMC42Nzk2OS0xLjUtMS41LTEuNXoiIGNsYXNzPSJmaWxsIi8+PC9zdmc+;" parent="rjUGybNKrxxeA_Nx0cuD-38" vertex="1">
          <mxGeometry x="17" y="15.957446808510632" width="34.55" height="35" as="geometry" />
        </mxCell>
        <mxCell id="rjUGybNKrxxeA_Nx0cuD-39" value="" style="group" parent="1" vertex="1" connectable="0">
          <mxGeometry x="910" y="20" width="160" height="800" as="geometry" />
        </mxCell>
        <mxCell id="rjUGybNKrxxeA_Nx0cuD-4" value="MCP Client" style="shape=umlLifeline;perimeter=lifelinePerimeter;whiteSpace=wrap;container=1;dropTarget=0;collapsible=0;recursiveResize=0;outlineConnect=0;portConstraint=eastwest;newEdgeStyle={&quot;edgeStyle&quot;:&quot;elbowEdgeStyle&quot;,&quot;elbow&quot;:&quot;vertical&quot;,&quot;curved&quot;:0,&quot;rounded&quot;:0};size=65;fillColor=#4798CA;strokeColor=#4798CA;rounded=1;fontSize=19;fontColor=#F7F7F7;align=left;spacingLeft=65;strokeWidth=4;fontStyle=1" parent="rjUGybNKrxxeA_Nx0cuD-39" vertex="1">
          <mxGeometry width="160" height="800" as="geometry" />
        </mxCell>
        <mxCell id="rjUGybNKrxxeA_Nx0cuD-33" value="" style="shape=image;verticalLabelPosition=bottom;labelBackgroundColor=default;verticalAlign=top;aspect=fixed;imageAspect=0;editableCssRules=.*;image=data:image/svg+xml,PHN2ZyB4bWxucz0iaHR0cDovL3d3dy53My5vcmcvMjAwMC9zdmciIHk9IjBweCIgeD0iMHB4IiB2aWV3Qm94PSI2IDEyIDg4IDc4IiBkYXRhLW5hbWU9IldhcnN0d2EgMSIgd2lkdGg9Ijg4IiBoZWlnaHQ9Ijc4Ij4mI3hhOyAgPHN0eWxlPi5maWxsIHsgZmlsbDogcmdiKDI1NSwgMjU1LCAyNTUpOyB9IDwvc3R5bGU+JiN4YTs8cGF0aCBkPSJNODQuODMsMjRIMThWMTJINnY0aDhWMzJINlY1Mmg4VjkwaDRWODBINDh2Ni44M0w1MS4xNyw5MEg5MC44M0w5NCw4Ni44M1YzMy4xN1pNMTQsNDhIMTBWMzZoNFpNOTAsODUuMTdsLS44My44M0g1Mi44M0w1Miw4NS4xN1Y3NkgxOFYyOEg4My4xN0w5MCwzNC44M1oiIGNsYXNzPSJmaWxsIi8+JiN4YTs8cGF0aCBkPSJNMjUuMTcsMzQsMjIsMzcuMTdWNjYuODNMMjUuMTcsNzBIMzguODNMNDIsNjYuODNWMzcuMTdMMzguODMsMzRaTTM4LDY1LjE3bC0uODMuODNIMjYuODNMMjYsNjUuMTdWMzguODNsLjgzLS44M0gzNy4xN2wuODMuODNaIiBjbGFzcz0iZmlsbCIvPiYjeGE7PHJlY3QgaGVpZ2h0PSI0IiB3aWR0aD0iMTIiIHk9IjM4IiB4PSI0NiIgY2xhc3M9ImZpbGwiLz4mI3hhOzxyZWN0IGhlaWdodD0iNCIgd2lkdGg9IjEyIiB5PSI0NiIgeD0iNDYiIGNsYXNzPSJmaWxsIi8+JiN4YTs8cmVjdCBoZWlnaHQ9IjQiIHdpZHRoPSIxMiIgeT0iNTQiIHg9IjQ2IiBjbGFzcz0iZmlsbCIvPiYjeGE7PHJlY3QgaGVpZ2h0PSI0IiB3aWR0aD0iMTIiIHk9IjYyIiB4PSI0NiIgY2xhc3M9ImZpbGwiLz4mI3hhOzxyZWN0IGhlaWdodD0iNCIgd2lkdGg9IjMwIiB5PSI3NiIgeD0iNTYiIGNsYXNzPSJmaWxsIi8+JiN4YTs8cmVjdCBoZWlnaHQ9IjQiIHdpZHRoPSI4IiB5PSIzOCIgeD0iNjIiIGNsYXNzPSJmaWxsIi8+JiN4YTs8cmVjdCBoZWlnaHQ9IjQiIHdpZHRoPSI4IiB5PSIzOCIgeD0iNzQiIGNsYXNzPSJmaWxsIi8+JiN4YTs8cmVjdCBoZWlnaHQ9IjQiIHdpZHRoPSI4IiB5PSI0NiIgeD0iNjIiIGNsYXNzPSJmaWxsIi8+JiN4YTs8cmVjdCBoZWlnaHQ9IjQiIHdpZHRoPSI4IiB5PSI0NiIgeD0iNzQiIGNsYXNzPSJmaWxsIi8+JiN4YTs8cGF0aCBkPSJNODIsNTRINjJWNzBIODJaTTc4LDY2SDY2VjU4SDc4WiIgY2xhc3M9ImZpbGwiLz4mI3hhOzwvc3ZnPg==;" parent="rjUGybNKrxxeA_Nx0cuD-39" vertex="1">
          <mxGeometry x="12" y="15.957446808510632" width="39.45" height="35" as="geometry" />
        </mxCell>
        <mxCell id="rjUGybNKrxxeA_Nx0cuD-40" value="" style="group" parent="1" vertex="1" connectable="0">
          <mxGeometry x="614" y="20" width="160" height="800" as="geometry" />
        </mxCell>
        <mxCell id="rjUGybNKrxxeA_Nx0cuD-3" value="LLM" style="shape=umlLifeline;perimeter=lifelinePerimeter;whiteSpace=wrap;container=1;dropTarget=0;collapsible=0;recursiveResize=0;outlineConnect=0;portConstraint=eastwest;newEdgeStyle={&quot;edgeStyle&quot;:&quot;elbowEdgeStyle&quot;,&quot;elbow&quot;:&quot;vertical&quot;,&quot;curved&quot;:0,&quot;rounded&quot;:0};size=65;fillColor=#4798CA;strokeColor=#4798CA;rounded=1;fontSize=19;fontColor=#F7F7F7;align=left;spacingLeft=65;strokeWidth=4;fontStyle=1" parent="rjUGybNKrxxeA_Nx0cuD-40" vertex="1">
          <mxGeometry width="160" height="800" as="geometry" />
        </mxCell>
        <mxCell id="rjUGybNKrxxeA_Nx0cuD-28" value="" style="shape=image;verticalLabelPosition=bottom;labelBackgroundColor=#7D7D7D;verticalAlign=top;aspect=fixed;imageAspect=0;editableCssRules=.*;image=data:image/svg+xml,PHN2ZyB4bWxucz0iaHR0cDovL3d3dy53My5vcmcvMjAwMC9zdmciIHZpZXdCb3g9IjEwLjA3MjA1OTYzMTM0NzY1NiAxMi42MDE0Nzg1NzY2NjAxNTYgNzkuODUzNDc3NDc4MDI3MzQgNzQuNzkxNzg2MTkzODQ3NjYiIHZlcnNpb249IjEuMSIgd2lkdGg9Ijc5Ljg1MzQ3NzQ3ODAyNzM0IiBoZWlnaHQ9Ijc0Ljc5MTc4NjE5Mzg0NzY2Ij4mI3hhOyAgPHN0eWxlPi5maWxsIHsgZmlsbDogcmdiKDI1NSwgMjU1LCAyNTUpOyB9IDwvc3R5bGU+JiN4YTsgPHBhdGggZD0ibTY0LjMyNCA0Mi4zNGgtMTQuMDc0Yy0wLjUyNzM0IDAtMC45NTMxMiAwLjQyNTc4LTAuOTUzMTIgMC45NTMxMnYxNS4yMjdjMCAwLjUyNzM0IDAuNDI1NzggMC45NTMxMiAwLjk1MzEyIDAuOTUzMTJoMTQuMDc0YzAuNTI3MzQgMCAwLjk1MzEyLTAuNDI1NzggMC45NTMxMi0wLjk1MzEydi0xNS4yMjdjMC0wLjUyNzM0LTAuNDI1NzgtMC45NTMxMi0wLjk1MzEyLTAuOTUzMTJ6bS0wLjk1MzEyIDE1LjIyM2gtMTIuMTY4di0xMy4zMTZoMTIuMTY4em0tMjkuMTcyLTUuMjI2NmMtMC4wNTA3ODEgMi4wMTk1LTEuMzM5OCA0LjEwNTUtMy40MTAyIDUuMjgxMi0wLjk4ODI4IDAuNTYyNS0yLjAyNzMgMC44MzU5NC0zLjA0MyAwLjgzNTk0LTEuNDg4MyAwLTIuOTI5Ny0wLjU4OTg0LTQuMTAxNi0xLjczODMtMC4zNzUtMC4zNjcxOS0wLjM4MjgxLTAuOTcyNjYtMC4wMTE3MTktMS4zNTE2IDAuMzY3MTktMC4zNzUgMC45NzI2Ni0wLjM4MjgxIDEuMzUxNi0wLjAxMTcxOSAxLjk2MDkgMS45MjU4IDQuMDU4NiAxLjA2MjUgNC44NjcyIDAuNjA1NDcgMS40ODA1LTAuODM5ODQgMi40NDE0LTIuMzM5OCAyLjQ1Ny0zLjcwMzEtMy4wODU5LTAuNTMxMjUtNi40NTctMy4xMDU1LTYuNDU3LTguODU5NCAwLTAuNTI3MzQgMC40MjU3OC0wLjk1MzEyIDAuOTUzMTMtMC45NTMxMiAwLjUyNzM0IDAgMC45NTMxMiAwLjQyNTc4IDAuOTUzMTIgMC45NTMxMiAwIDQuNzg5MSAyLjcwNyA2Ljc3MzQgNS4yMzgzIDcuMDMxMiAwLjAzOTA2MiAwLjAwMzkwNyAwLjA3ODEyNSAwLjAwMzkwNyAwLjExNzE5IDAuMDA3ODEzIDAuMDkzNzUtMC4wMDM5MDYgMC4xODc1LTAuMDAzOTA2IDAuMjc3MzQgMC4wMTU2MjUgMi41MDc4IDAuMDg1OTM3IDUuMzY3Mi0xLjQzNzUgNi4wMjM0LTQuNjA1NSAwLjEwNTQ3LTAuNTE1NjIgMC42MTMyOC0wLjg0NzY2IDEuMTI4OS0wLjc0MjE5IDAuNTE1NjIgMC4xMDU0NyAwLjg0NzY2IDAuNjEzMjggMC43NDIxOSAxLjEyODktMC43OTY4OCAzLjgzOTgtNC4wMDc4IDUuODYzMy03LjA4MiA2LjEwOTR6bTEuMzEyNSAxMS4wMzVjMC4wMjczNDMgMC41MjczNC0wLjM3NSAwLjk3NjU2LTAuOTAyMzQgMS4wMDM5LTIuMTQwNiAwLjExMzI4LTMuMjU3OCAxLjk3NjYtMy4zOTQ1IDMuNjU2Mi0wLjEzNjcyIDEuNjk5MiAwLjY0MDYyIDMuNzE0OCAzLjIyNjYgNC4yODEyIDAuNTE1NjIgMC4xMTMyOCAwLjgzOTg0IDAuNjIxMDkgMC43MzA0NyAxLjEzNjctMC4wOTc2NTYgMC40NDUzMS0wLjQ5MjE5IDAuNzUtMC45Mjk2OSAwLjc1LTAuMDY2NDA3IDAtMC4xMzY3Mi0wLjAwNzgxMy0wLjIwMzEzLTAuMDIzNDM4LTMuNTUwOC0wLjc3MzQ0LTQuOTMzNi0zLjcyMjctNC43MjI3LTYuMjk2OSAwLjE5OTIyLTIuNDgwNSAxLjkxMDItNS4yMzA1IDUuMTk1My01LjQwNjIgMC41MjczNC0wLjAyNzM0NCAwLjk3NjU2IDAuMzc1IDEuMDAzOSAwLjkwMjM0em01MC4wODYtMTEuODk1Yy0xLjc2OTUgMC0zLjI0NjEgMS4yMTg4LTMuNjcxOSAyLjg1NTVoLTExLjg3NXYtMi40NzI3aDUuNDY0OGMwLjUyNzM0IDAgMC45NTMxMi0wLjQyNTc4IDAuOTUzMTItMC45NTMxMnMtMC40MjU3OC0wLjk1MzEyLTAuOTUzMTItMC45NTMxMmgtNS40NjQ4di0yLjU4OThoNy42NDA2YzAuMjc3MzQgMCAwLjU0Mjk3LTAuMTIxMDkgMC43MjI2Ni0wLjMzMjAzbDYuMjIyNy03LjI1MzljMC40NTcwMyAwLjE5MTQxIDAuOTU3MDMgMC4zMDA3OCAxLjQ4MDUgMC4zMDA3OCAyLjEwMTYgMCAzLjgwODYtMS43MDcgMy44MDg2LTMuODA4NiAwLTIuMTAxNi0xLjcwNy0zLjgwODYtMy44MDg2LTMuODA4Ni0yLjEwMTYgMC0zLjgwODYgMS43MDctMy44MDg2IDMuODA4NiAwIDAuODgyODEgMC4zMTY0MSAxLjY4NzUgMC44MjAzMSAyLjMzMmwtNS44Nzg5IDYuODUxNmgtNy4yMDMxdi0yLjkzNzVoNC43NDIyYzAuNTI3MzQgMCAwLjk1MzEzLTAuNDI1NzggMC45NTMxMy0wLjk1MzEydi05LjgyODFjMS42MzY3LTAuNDI1NzggMi44NTU1LTEuOTAyMyAyLjg1NTUtMy42NzE5IDAtMi4xMDE2LTEuNzA3LTMuODA4Ni0zLjgwODYtMy44MDg2LTIuMTAxNiAwLTMuODA4NiAxLjcwNy0zLjgwODYgMy44MDg2IDAgMS43Njk1IDEuMjE4OCAzLjI0NjEgMi44NTU1IDMuNjcxOXY4Ljg3MTFoLTMuNzg5MXYtMC44MDg1OWMwLTEuNDQ1My0xLjE3NTgtMi42MjExLTIuNjIxMS0yLjYyMTFoLTQuODEyNXYtNy4wMTU2aDMuNTY2NGMwLjUyNzM0IDAgMC45NTMxMi0wLjQyNTc4IDAuOTUzMTItMC45NTMxMnYtOS4xMjVjMS42MzY3LTAuNDI1NzggMi44NTU1LTEuOTAyMyAyLjg1NTUtMy42NzE5IDAtMi4xMDE2LTEuNzA3LTMuODA4Ni0zLjgwODYtMy44MDg2LTIuMTAxNiAwLTMuODA4NiAxLjcwNy0zLjgwODYgMy44MDg2IDAgMS43Njk1IDEuMjE4OCAzLjI0NjEgMi44NTU1IDMuNjcxOXY4LjE2OGgtMy41NjY0Yy0wLjUyNzM0IDAtMC45NTMxMiAwLjQyNTc4LTAuOTUzMTIgMC45NTMxMnY3Ljk2ODhoLTIuNDY4OHYtNS4wNzgxYzAtMC41MjczNC0wLjQyNTc4LTAuOTUzMTItMC45NTMxMi0wLjk1MzEycy0wLjk1MzEyIDAuNDI1NzgtMC45NTMxMiAwLjk1MzEydjUuMDc4MWgtMi40Njg4di0xNS44NzljMS42MzY3LTAuNDI1NzggMi44NTU1LTEuOTAyMyAyLjg1NTUtMy42NzE5IDAtMi4xMDE2LTEuNzA3LTMuODA4Ni0zLjgwODYtMy44MDg2LTIuMTAxNiAwLTMuODA4NiAxLjcwNy0zLjgwODYgMy44MDg2IDAgMS43Njk1IDEuMjE4OCAzLjI0NjEgMi44NTU1IDMuNjcxOXYxNS44NzloLTQuODEyNWMtMC4yNjk1MyAwLTAuNTIzNDQgMC4wNTA3ODEtMC43NjU2MiAwLjEyODkxbC0wLjA1MDc4MS0xMy4yMjNjMC0wLjA3NDIxOS0wLjAwNzgxMy0wLjE1MjM0LTAuMDI3MzQ0LTAuMjIyNjYtMS4zNDM4LTUuNDcyNy01Ljg5NDUtNy40MTAyLTkuNDE0MS03LjQxMDJoLTAuMDU4NTk0Yy0zLjI1MzkgMC4wMTk1MzItNi4yMTA5IDIuMDY2NC03LjM1NTUgNS4wODk4LTAuMTQwNjIgMC4zNzUtMC4yNDYwOSAwLjc1LTAuMzI0MjIgMS4xMjUtMi4yNS0wLjkwMjM0LTUuMTM2NyAwLTcuMjI2NiAyLjM1OTQtMi4wOTM4IDIuMzYzMy0yLjU4OTggNS4yOTMtMS4zOTg0IDcuNzQyMi0xLjI1NzggMC42NTIzNC0yLjM2NzIgMS41NjI1LTMuMTk5MiAyLjY4MzYtMS45NjA5IDIuNjUyMy0yLjA1NDcgNi4wNjI1LTAuMzE2NDEgOS41MzEyLTIuMzI4MSAwLjMzMjAzLTQuMjUzOSAxLjY1NjItNS41MTE3IDMuODMyLTIuMDI3MyAzLjUtMS44NzUgOC41NzgxIDAuMzYzMjggMTIuMDc0IDAuODI4MTIgMS4yODkxIDEuODgyOCAyLjI4NTIgMy4xMDk0IDIuOTkyMi0xLjc2NTYgMi44NDc3LTAuODIwMzEgNi40NDUzIDEuMDkzOCA4Ljk2NDggMi4yMTA5IDIuOTA2MiA2LjA3NDIgNSAxMC4xMDkgMy42NjggMC44MTY0MSA2LjIxNDggNS43MzA1IDguOTk2MSAxMC41NjIgOC45OTYxaDAuMTQ4NDRjNC42NDQ1LTAuMDU0Njg3IDkuNjA5NC0yLjc5NjkgOS42NTYyLTcuNzY1NnYtMC4wMTE3MTktMC4wMDM5MDZsLTAuMDUwNzgxLTEzLjE4NGMwLjIxMDk0IDAuMDU0Njg4IDAuNDI5NjkgMC4wOTM3NSAwLjY2MDE2IDAuMDkzNzVoMy45NTd2MTQuNzc3Yy0xLjYzNjcgMC40MjU3OC0yLjg1NTUgMS45MDIzLTIuODU1NSAzLjY3MTkgMCAyLjEwMTYgMS43MDcgMy44MDg2IDMuODA4NiAzLjgwODYgMi4xMDE2IDAgMy44MDg2LTEuNzA3IDMuODA4Ni0zLjgwODYgMC0xLjc2OTUtMS4yMTg4LTMuMjQ2MS0yLjg1NTUtMy42NzE5di0xNC43NzdoMy4zMjQydjYuMTY4YzAgMC41MjczNCAwLjQyNTc4IDAuOTUzMTIgMC45NTMxMiAwLjk1MzEyIDAuNTI3MzQgMCAwLjk1MzEzLTAuNDI1NzggMC45NTMxMy0wLjk1MzEydi02LjE2OGgzLjc2OTV2MTEuODI0YzAgMC4yNTc4MSAwLjEwNTQ3IDAuNTAzOTEgMC4yODkwNiAwLjY4MzU5bDUuMTQ0NSA1LjAwMzljLTAuMTgzNTkgMC40NDUzMS0wLjI4OTA2IDAuOTMzNTktMC4yODkwNiAxLjQ0MTQgMCAyLjEwMTYgMS43MDcgMy44MDg2IDMuODA4NiAzLjgwODYgMi4xMDE2IDAgMy44MDg2LTEuNzA3IDMuODA4Ni0zLjgwODYgMC0yLjEwMTYtMS43MDctMy44MDg2LTMuODA4Ni0zLjgwODYtMC44OTA2MiAwLTEuNzAzMSAwLjMyMDMxLTIuMzUxNiAwLjgzNTk0bC00LjY5MTQtNC41NjI1di0xMS40MjJoMy41MTU2YzEuNDQ1MyAwIDIuNjIxMS0xLjE3NTggMi42MjExLTIuNjIxMXYtMC42MjVoMy43ODkxdjguODcxMWMtMS42MzY3IDAuNDI1NzgtMi44NTU1IDEuOTAyMy0yLjg1NTUgMy42NzE5IDAgMi4xMDE2IDEuNzA3IDMuODA4NiAzLjgwODYgMy44MDg2IDIuMTAxNiAwIDMuODA4Ni0xLjcwNyAzLjgwODYtMy44MDg2IDAtMS43Njk1LTEuMjE4OC0zLjI0NjEtMi44NTU1LTMuNjcxOXYtOS44MjgxYzAtMC41MjczNC0wLjQyNTc4LTAuOTUzMTItMC45NTMxMi0wLjk1MzEyaC00Ljc0MjJ2LTMuMjM4M2gxMS44NzVjMC40MjU3OCAxLjYzNjcgMS45MDIzIDIuODU1NSAzLjY3MTkgMi44NTU1IDIuMTAxNiAwIDMuODA4Ni0xLjcwNyAzLjgwODYtMy44MDg2cy0xLjcwNy0zLjgwODYtMy44MDg2LTMuODA4NnptMC41MjM0NC0xNy4xMDljMS4wNDY5IDAgMS44OTg0IDAuODUxNTYgMS44OTg0IDEuODk4NHMtMC44NTE1NiAxLjg5ODQtMS44OTg0IDEuODk4NC0xLjg5ODQtMC44NTE1Ni0xLjg5ODQtMS44OTg0IDAuODUxNTYtMS44OTg0IDEuODk4NC0xLjg5ODR6bS0xMy4yMjctNi4zMDg2YzAtMS4wNDY5IDAuODUxNTYtMS44OTg0IDEuODk4NC0xLjg5ODRzMS44OTg0IDAuODUxNTYgMS44OTg0IDEuODk4NC0wLjg1MTU2IDEuODk4NC0xLjg5ODQgMS44OTg0LTEuODk4NC0wLjg1MTU2LTEuODk4NC0xLjg5ODR6bS04LjYwOTQtMTEuNjQ4YzAtMS4wNDY5IDAuODUxNTYtMS44OTg0IDEuODk4NC0xLjg5ODRzMS44OTg0IDAuODUxNTYgMS44OTg0IDEuODk4NC0wLjg1MTU2IDEuODk4NC0xLjg5ODQgMS44OTg0LTEuODk4NC0wLjg1MTU2LTEuODk4NC0xLjg5ODR6bS0xMy4yNzcgMS4yMTA5YzAtMS4wNDY5IDAuODUxNTYtMS44OTg0IDEuODk4NC0xLjg5ODRzMS44OTg0IDAuODUxNTYgMS44OTg0IDEuODk4NC0wLjg1MTU2IDEuODk4NC0xLjg5ODQgMS44OTg0LTEuODk4NC0wLjg1MTU2LTEuODk4NC0xLjg5ODR6bTIuOTQ1MyA2NS40NjVjMCAxLjA0NjktMC44NTE1NiAxLjg5ODQtMS44OTg0IDEuODk4NC0xLjA0NjkgMC0xLjg5ODQtMC44NTE1Ni0xLjg5ODQtMS44OTg0IDAtMS4wNDY5IDAuODUxNTYtMS44OTg0IDEuODk4NC0xLjg5ODQgMS4wNDY5IDAgMS44OTg0IDAuODUxNTYgMS44OTg0IDEuODk4NHptMTcuMDEyLTEuMzk0NWMxLjA0NjkgMCAxLjg5ODQgMC44NTE1NiAxLjg5ODQgMS44OTg0cy0wLjg1MTU2IDEuODk4NC0xLjg5ODQgMS44OTg0LTEuODk4NC0wLjg1MTU2LTEuODk4NC0xLjg5ODQgMC44NTE1Ni0xLjg5ODQgMS44OTg0LTEuODk4NHptNS43MzA1LTcuNzU3OGMwIDEuMDQ2OS0wLjg1MTU2IDEuODk4NC0xLjg5ODQgMS44OTg0cy0xLjg5ODQtMC44NTE1Ni0xLjg5ODQtMS44OTg0IDAuODUxNTYtMS44OTg0IDEuODk4NC0xLjg5ODQgMS44OTg0IDAuODUxNTYgMS44OTg0IDEuODk4NHptLTQwLjUyLTMuNjgzNmMwLjE1MjM0IDAuNTAzOTEgMC42ODM1OSAwLjc4OTA2IDEuMTg3NSAwLjY0MDYyIDEuODA0Ny0wLjU0Mjk3IDMuNTkzOC0wLjI4OTA2IDQuOTEwMiAwLjY5OTIyIDEuNTYyNSAxLjE3MTkgMi4zNzUgMy4yOTMgMi4zNDc3IDYuMTI4OXYwLjAwNzgxMmMtMC4wMzUxNTYgMy43NTc4LTQuMDI3MyA1LjgzMi03Ljc2OTUgNS44NzUtMy45NzI3IDAuMDQ2ODc2LTguNjc5Ny0yLjE1MjMtOC44ODY3LTguNTAzOS0wLjAxMTcxOS0wLjMyODEyLTAuMTg3NS0wLjYyNS0wLjQ2ODc1LTAuNzkyOTctMC4yODEyNS0wLjE2NDA2LTAuNjI4OTEtMC4xNzU3OC0wLjkyMTg4LTAuMDI3MzQ0LTMuNDk2MSAxLjc5My03LjAzNTItMC4wMDc4MTMtOC45OTYxLTIuNTg1OS0xLjU0NjktMi4wMzUyLTIuMzM1OS00LjkxOC0wLjgzOTg0LTcuMDM5MSAwLjkzNzUgMC4yOTI5NyAxLjkzNzUgMC40NTcwMyAzLjAwMzkgMC40NTcwMyAwLjM3MTA5IDAgMC43NS0wLjAxOTUzMSAxLjEzMjgtMC4wNTQ2ODcgMC41MjM0NC0wLjA1MDc4MiAwLjkxMDE2LTAuNTE1NjMgMC44NTkzOC0xLjAzOTFzLTAuNTE1NjItMC45MTAxNi0xLjAzOTEtMC44NTkzOGMtMy45OTIyIDAuMzc1LTYuMTM2Ny0xLjU4NTktNy4yMzQ0LTMuMjk2OS0xLjg3NS0yLjkyNTgtMi4wMTE3LTcuMTcxOS0wLjMyMDMxLTEwLjA4NiAwLjgyODEyLTEuNDI5NyAyLjQzNzUtMy4xMDE2IDUuNDE0MS0yLjk1MzEgMC4zNTU0NyAwLjAxNTYyNiAwLjY5NTMxLTAuMTY3OTcgMC44NzUtMC40NzY1NiAwLjE3OTY5LTAuMzA4NTkgMC4xNjc5Ny0wLjY5NTMxLTAuMDIzNDM4LTAuOTk2MDktMi4xMDk0LTMuMjc3My0yLjMwNDctNi4zOTA2LTAuNTU0NjktOC43NjE3IDEuODA4Ni0yLjQ0OTIgNS40NDUzLTMuNjYwMiA4LjQ1Ny0yLjgxMjUgMi43MTQ4IDAuNzYxNzIgNC4zNzExIDIuOTk2MSA0LjY2NDEgNi4yODkxIDAuMDQ2ODc1IDAuNTIzNDQgMC41MTE3MiAwLjkxMDE2IDEuMDM1MiAwLjg2NzE5IDAuNTIzNDQtMC4wNDY4NzYgMC45MTQwNi0wLjUxMTcyIDAuODY3MTktMS4wMzUyLTAuMzYzMjgtNC4wNzgxLTIuNTY2NC02Ljk4MDUtNi4wNTA4LTcuOTU3LTEuODA0Ny0wLjUwNzgxLTMuNzQyMi0wLjQzMzU5LTUuNTM1MiAwLjEwOTM4LTEuMTA1NS0yLjA5MzgtMC4yMzQzNy00LjMwNDcgMS4wNTA4LTUuNzU3OCAxLjM5NDUtMS41NzQyIDMuNjk1My0yLjY3NTggNS4zOTA2LTEuNzM0NCAwLjA5Mzc1IDAuMDUwNzgxIDAuMTk1MzEgMC4wNzQyMTggMC4yOTY4OCAwLjA5Mzc1IDAuMTYwMTYgMS44Nzg5IDEuMDc4MSAzLjY4MzYgMi43MTA5IDUuMTQwNiAwLjM5NDUzIDAuMzUxNTYgMC45OTYwOSAwLjMxNjQxIDEuMzQ3Ny0wLjA3NDIxOCAwLjM1MTU2LTAuMzk0NTMgMC4zMTY0MS0wLjk5NjA5LTAuMDc0MjE5LTEuMzQ3Ny0xLjk0MTQtMS43MzgzLTIuNTgyLTMuOTgwNS0xLjc2MTctNi4xNTIzIDAuODY3MTktMi4yOTMgMy4xMDk0LTMuODQzOCA1LjU4Mi0zLjg1OTQgMS4wMjM0LTAuMDA3ODEzIDYuMTM2NyAwLjI1IDcuNTc4MSA1Ljg0NzdsMC4xMDU0NyAyNi43MDN2MTEuMTA5YzAgMC4xNTIzNCAwLjAxOTUzMSAwLjMwMDc4IDAuMDQ2ODc1IDAuNDQ1MzFsMC4wMzUxNTYgOC43NDIyYy0wLjM4NjcyLTAuNDcyNjYtMC43OTI5Ny0wLjg1MTU2LTEuMTc5Ny0xLjE0NDUtMS44MDg2LTEuMzU1NS00LjIxNDgtMS43MTg4LTYuNjA1NS0xLTAuNTAzOTEgMC4xNTIzNC0wLjc4OTA2IDAuNjgzNTktMC42NDA2MiAxLjE4NzV6bTMxLjk2OS04LjIzNDRjMCAwLjM5NDUzLTAuMzIwMzEgMC43MTA5NC0wLjcxMDk0IDAuNzEwOTRoLTIwLjI4OWMtMC4zMTY0MSAwLTAuNTc0MjItMC4yMTA5NC0wLjY2Nzk3LTAuNDkyMTlsLTAuMDQyOTY4LTExLjMyNHYtMTEuMTEzYzAtMC4zOTQ1MyAwLjMyMDMxLTAuNzEwOTQgMC43MTA5NC0wLjcxMDk0aDIwLjI4OWMwLjM5NDUzIDAgMC43MTA5NCAwLjMyMDMxIDAuNzEwOTQgMC43MTA5NHptMTcuNDUzLTQuODI4MWMtMS4wNDY5IDAtMS44OTg0LTAuODUxNTYtMS44OTg0LTEuODk4NCAwLTEuMDQ2OSAwLjg1MTU2LTEuODk4NCAxLjg5ODQtMS44OTg0czEuODk4NCAwLjg1MTU2IDEuODk4NCAxLjg5ODRjMCAxLjA0NjktMC44NTE1NiAxLjg5ODQtMS44OTg0IDEuODk4NHoiIGNsYXNzPSJmaWxsIi8+PC9zdmc+;fontColor=light-dark(#FFFFFF,#000000);fontSize=20;" parent="rjUGybNKrxxeA_Nx0cuD-40" vertex="1">
          <mxGeometry x="14" y="15.957446808510632" width="37.31" height="35" as="geometry" />
        </mxCell>
        <mxCell id="rjUGybNKrxxeA_Nx0cuD-42" value="" style="group" parent="1" vertex="1" connectable="0">
          <mxGeometry x="20" y="20" width="160" height="800" as="geometry" />
        </mxCell>
        <mxCell id="rjUGybNKrxxeA_Nx0cuD-1" value="User" style="shape=umlLifeline;perimeter=lifelinePerimeter;whiteSpace=wrap;container=1;dropTarget=0;collapsible=0;recursiveResize=0;outlineConnect=0;portConstraint=eastwest;newEdgeStyle={&quot;edgeStyle&quot;:&quot;elbowEdgeStyle&quot;,&quot;elbow&quot;:&quot;vertical&quot;,&quot;curved&quot;:0,&quot;rounded&quot;:0};size=65;fillColor=#4798CA;strokeColor=#4798CA;rounded=1;fontSize=19;fontColor=#F7F7F7;align=left;spacingLeft=65;strokeWidth=4;fontStyle=1" parent="rjUGybNKrxxeA_Nx0cuD-42" vertex="1">
          <mxGeometry width="160" height="800" as="geometry" />
        </mxCell>
        <mxCell id="rjUGybNKrxxeA_Nx0cuD-36" value="" style="shape=image;verticalLabelPosition=bottom;labelBackgroundColor=default;verticalAlign=top;aspect=fixed;imageAspect=0;editableCssRules=.*;image=data:image/svg+xml,PHN2ZyB4bWxucz0iaHR0cDovL3d3dy53My5vcmcvMjAwMC9zdmciIHk9IjBweCIgeD0iMHB4IiB2aWV3Qm94PSIwIDAgMzIgMzIiIGRhdGEtY29udGFpbmVyLXRyYW5zZm9ybT0ic2NhbGUoMSAxICkgdHJhbnNsYXRlKDAgKSIgZGF0YS1pY29uPSJwZXJzb24tZ2VuZGVybGVzcyIgdmVyc2lvbj0iMS4xIiB3aWR0aD0iMzIiIGhlaWdodD0iMzIiPiYjeGE7ICA8c3R5bGU+LmZpbGwgeyBmaWxsOiByZ2IoMjU1LCAyNTUsIDI1NSk7IH0gPC9zdHlsZT4mI3hhOyA8cGF0aCBkPSJNMTYgMGMtNC40IDAtOCAzLjUtOCA5czIuNSAxMSA4IDExYzUuNCAwIDgtNS41IDgtMTFzLTMuNi05LTgtOXptLTggMjBjLTQuNCAwLTggMy42LTggOHYzLjVjMCAuMy4yLjUuNS41aDMxYy4zIDAgLjUtLjIuNS0uNXYtMy41YzAtNC40LTMuNi04LTgtOGgtLjQwNmMtLjIgMC0uNTgxLjIxMi0uNzgxLjMxMy0xLjggMS43LTQuMjEyIDIuNjg4LTYuODEzIDIuNjg4LTIuNiAwLTUuMDEyLS45ODgtNi44MTMtMi42ODgtLjItLjEtLjQ4MS0uMzEzLS43ODEtLjMxM2gtLjQwNnoiIGNsYXNzPSJmaWxsIi8+PC9zdmc+;" parent="rjUGybNKrxxeA_Nx0cuD-42" vertex="1">
          <mxGeometry x="14" y="15.957446808510632" width="35" height="35" as="geometry" />
        </mxCell>
        <mxCell id="rjUGybNKrxxeA_Nx0cuD-41" value="" style="group" parent="1" vertex="1" connectable="0">
          <mxGeometry x="317" y="20" width="160" height="800" as="geometry" />
        </mxCell>
        <mxCell id="rjUGybNKrxxeA_Nx0cuD-2" value="Agent / MCP Host" style="shape=umlLifeline;perimeter=lifelinePerimeter;whiteSpace=wrap;container=1;dropTarget=0;collapsible=0;recursiveResize=0;outlineConnect=0;portConstraint=eastwest;newEdgeStyle={&quot;edgeStyle&quot;:&quot;elbowEdgeStyle&quot;,&quot;elbow&quot;:&quot;vertical&quot;,&quot;curved&quot;:0,&quot;rounded&quot;:0};size=65;fillColor=#4798CA;strokeColor=#4798CA;rounded=1;fontSize=19;fontColor=#F7F7F7;align=left;spacingLeft=60;strokeWidth=4;fontStyle=1" parent="rjUGybNKrxxeA_Nx0cuD-41" vertex="1">
          <mxGeometry width="160" height="800" as="geometry" />
        </mxCell>
        <mxCell id="rjUGybNKrxxeA_Nx0cuD-29" value="" style="shape=image;verticalLabelPosition=bottom;labelBackgroundColor=default;verticalAlign=top;aspect=fixed;imageAspect=0;editableCssRules=.*;image=data:image/svg+xml,PHN2ZyB4bWxucz0iaHR0cDovL3d3dy53My5vcmcvMjAwMC9zdmciIGZpbGw9Im5vbmUiIHZpZXdCb3g9IjAuMjM3MDAwMDAzNDU3MDY5NCAwLjEzMTE3MDg4Mzc3NDc1NzM5IDEwMS42NjczMjc4ODA4NTkzOCAxMDAuODY4ODI3ODE5ODI0MjIiIG92ZXJmbG93PSJ2aXNpYmxlIiB3aWR0aD0iMTAxLjY2NzMyNzg4MDg1OTM4IiBoZWlnaHQ9IjEwMC44Njg4Mjc4MTk4MjQyMiI+JiN4YTsgIDxwYXRoIHN0eWxlPSJ0cmFuc2Zvcm0tb3JpZ2luOiA1MHB4IDUwcHg7IHRyYW5zZm9ybTogcm90YXRlKDMzMGRlZykgc2NhbGVZKDEuMTU2MDUpIHJvdGF0ZSgtMzMwZGVnKTsiIGZpbGw9IiNEOTc3NTciIGQ9Ik05Ni4wMDAwIDQwLjAwMDAgTDk5LjUwMDIgNDIuMDAwMCBMOTkuNTAwMiA0My41MDAwIEw5OC41MDAwIDQ3LjAwMDAgTDU2LjAwMDAgNTcuMDAwMCBMNTIuMDA0MCA0Ny4wNzA4IEw5Ni4wMDAwIDQwLjAwMDAgTTk2LjAwMDAgNDAuMDAwMCIvPiYjeGE7ICA8cGF0aCBzdHlsZT0idHJhbnNmb3JtLW9yaWdpbjogNTBweCA1MHB4OyB0cmFuc2Zvcm06IHJvdGF0ZSgzMDBkZWcpIHNjYWxlWSgxLjAyNjM4KSByb3RhdGUoLTMwMGRlZyk7IiBmaWxsPSIjRDk3NzU3IiBkPSJNODAuMTAzMiAxMC41OTAzIEw4NC45OTY4IDExLjYxNzEgTDg2LjI5NTggMTMuMjE3OSBMODcuNTM0NiAxNy4wNTQwIEw4Ny4wMjEzIDE5LjUwMDcgTDU4LjUwMDAgNTguNTAwMCBMNDkuMDAwMCA0OS4wMDAwIEw3NS4zMDA4IDE0LjQ4NzMgTDgwLjEwMzIgMTAuNTkwMyBNODAuMTAzMiAxMC41OTAzIi8+JiN4YTsgIDxwYXRoIHN0eWxlPSJ0cmFuc2Zvcm0tb3JpZ2luOiA1MHB4IDUwcHg7IHRyYW5zZm9ybTogcm90YXRlKDI3MGRlZykgc2NhbGVZKDAuOTg1KSByb3RhdGUoLTI3MGRlZyk7IiBmaWxsPSIjRDk3NzU3IiBkPSJNNTUuNTAwMiA0LjUwMDAgTDU4LjUwMDUgMi41MDAwIEw2MS4wMDAyIDMuNTAwMCBMNjMuNTAwMiA3LjAwMDAgTDU2LjY1MTEgNDguMTYyMCBMNTIuMDAwNSA0NS4wMDAwIEw1MC4wMDA1IDM5LjUwMDAgTDUzLjUwMDMgOC41MDAwIEw1NS41MDAyIDQuNTAwMCBNNTUuNTAwMiA0LjUwMDAiLz4mI3hhOyAgPHBhdGggc3R5bGU9InRyYW5zZm9ybS1vcmlnaW46IDUwcHggNTBweDsgdHJhbnNmb3JtOiByb3RhdGUoMjQwZGVnKSBzY2FsZVkoMS4wNDUpIHJvdGF0ZSgtMjQwZGVnKTsiIGZpbGw9IiNEOTc3NTciIGQ9Ik0yMy40MjUzIDUuMTU4OCBMMjYuNTA3NSAxLjIyMTcgTDI4LjUxNzUgMC43NjMyIEwzMi41MDYzIDEuMzQ1OCBMMzQuNDc0OCAyLjg4NjggTDQ4LjgyMDIgMzQuNjkwMiBMNTQuMDA4OSA0OS44MDA4IEw0Ny45Mzc4IDUzLjE3NjAgTDI0LjgwMDkgMTEuMTg4NiBMMjMuNDI1MyA1LjE1ODggTTIzLjQyNTMgNS4xNTg4Ii8+JiN4YTsgIDxwYXRoIHN0eWxlPSJ0cmFuc2Zvcm0tb3JpZ2luOiA1MHB4IDUwcHg7IHRyYW5zZm9ybTogcm90YXRlKDIxMGRlZykgc2NhbGVZKDEuMDE1KSByb3RhdGUoLTIxMGRlZyk7IiBmaWxsPSIjRDk3NzU3IiBkPSJNOC40OTkwIDI3LjAwMTkgTDcuNDk5OSAyMy4wMDAxIEwxMC41MDAzIDE5LjUwMDEgTDE0LjAwMDMgMjAuMDAwMSBMMTUuMDAwMyAyMC4wMDAxIEwzNi4wMDAwIDM1LjUwMDAgTDQyLjUwMDAgNDAuNTAwMCBMNTEuNTAwMCA0Ny41MDAwIEw0Ni41MDAwIDU2LjAwMDAgTDQyLjAwMDIgNTIuNTAwMCBMMzkuMDAwMSA0OS41MDAwIEwxMC4wMDAwIDI5LjAwMDEgTDguNDk5MCAyNy4wMDE5IE04LjQ5OTAgMjcuMDAxOSIvPiYjeGE7ICA8cGF0aCBzdHlsZT0idHJhbnNmb3JtLW9yaWdpbjogNTBweCA1MHB4OyB0cmFuc2Zvcm06IHJvdGF0ZSgxODBkZWcpIHNjYWxlWSgwLjkyNSkgcm90YXRlKC0xODBkZWcpOyIgZmlsbD0iI0Q5Nzc1NyIgZD0iTTIuNTAwMyA1My4wMDAwIEwwLjIzNzAgNTAuNTAwMCBMMC4yMzczIDQ4LjI3NTkgTDIuNTAwMyA0Ny41MDAwIEwyOC4wMDAwIDQ5LjAwMDAgTDUzLjAwMDAgNTEuMDAwMCBMNTIuMTg4NSA1NS45NzgyIEw0LjUwMDAgNTMuNTAwMCBMMi41MDAzIDUzLjAwMDAgTTIuNTAwMyA1My4wMDAwIi8+JiN4YTsgIDxwYXRoIHN0eWxlPSJ0cmFuc2Zvcm0tb3JpZ2luOiA1MHB4IDUwcHg7IHRyYW5zZm9ybTogcm90YXRlKDE1MGRlZykgc2NhbGVZKDAuOTQpIHJvdGF0ZSgtMTUwZGVnKTsiIGZpbGw9IiNEOTc3NTciIGQ9Ik0xNy41MDAyIDc5LjAyNjQgTDEyLjUwMDUgNzkuMDI2NCBMMTAuNTEyNCA3Ni43MzY5IEwxMC41MTI0IDc0LjAwMDAgTDE5LjAwMDUgNjguMDAwMCBMNTMuNTA4MiA0Ni4wMzM3IEw1Ny4wMDA1IDUyLjAwMDAgTDE3LjUwMDIgNzkuMDI2NCBNMTcuNTAwMiA3OS4wMjY0Ii8+JiN4YTsgIDxwYXRoIHN0eWxlPSJ0cmFuc2Zvcm0tb3JpZ2luOiA1MHB4IDUwcHg7IHRyYW5zZm9ybTogcm90YXRlKDEyMGRlZykgc2NhbGVZKDEuMDkpIHJvdGF0ZSgtMTIwZGVnKTsiIGZpbGw9IiNEOTc3NTciIGQ9Ik0yNy4wMDA0IDkyLjk5OTkgTDI1LjAwMDMgOTMuNDk5OSBMMjIuMDAwMyA5MS45OTk5IEwyMi41MDA0IDg5LjQ5OTkgTDUyLjAwMDMgNTAuNTAwMCBMNTYuMDAwNCA1NS45OTk5IEwzNC4wMDAzIDg1LjAwMDAgTDI3LjAwMDQgOTIuOTk5OSBNMjcuMDAwNCA5Mi45OTk5Ii8+JiN4YTsgIDxwYXRoIHN0eWxlPSJ0cmFuc2Zvcm0tb3JpZ2luOiA1MHB4IDUwcHg7IHRyYW5zZm9ybTogcm90YXRlKDkwZGVnKSBzY2FsZVkoMS4xMTIyOSkgcm90YXRlKC05MGRlZyk7IiBmaWxsPSIjRDk3NzU3IiBkPSJNNTEuOTk5OCA5OC4wMDAwIEw1MC41MDAyIDEwMC4wMDAwIEw0Ny41MDAyIDEwMS4wMDAwIEw0NS4wMDAxIDk5LjAwMDAgTDQzLjUwMDAgOTYuMDAwMCBMNTEuMDAwMyA1NS40OTk5IEw1NS41MDAxIDU1Ljk5OTkgTDUxLjk5OTggOTguMDAwMCBNNTEuOTk5OCA5OC4wMDAwIi8+JiN4YTsgIDxwYXRoIHN0eWxlPSJ0cmFuc2Zvcm0tb3JpZ2luOiA1MHB4IDUwcHg7IHRyYW5zZm9ybTogcm90YXRlKDYwZGVnKSBzY2FsZVkoMS4xMzM5NSkgcm90YXRlKC02MGRlZyk7IiBmaWxsPSIjRDk3NzU3IiBkPSJNNzcuNTAwNyA4Ni45OTk3IEw3Ny41MDA3IDkwLjk5OTcgTDc3LjAwMDYgOTIuNDk5NyBMNzUuMDAwNCA5My40OTk3IEw3MS41MDA2IDkzLjAzMzkgTDQ3LjQ2NjkgNTcuMjY0MiBMNTYuOTk5OCA1MC4wMDAyIEw2NC45OTk0IDY0LjUwMDQgTDY1Ljc1MDcgNjkuNzQ5NyBMNzcuNTAwNyA4Ni45OTk3IE03Ny41MDA3IDg2Ljk5OTciLz4mI3hhOyAgPHBhdGggc3R5bGU9InRyYW5zZm9ybS1vcmlnaW46IDUwcHggNTBweDsgdHJhbnNmb3JtOiByb3RhdGUoMzBkZWcpIHNjYWxlWSgxLjE0MDYyKSByb3RhdGUoLTMwZGVnKTsiIGZpbGw9IiNEOTc3NTciIGQ9Ik04OS4wMDA4IDgwLjk5OTEgTDg5LjUwMDggODMuNDk5MSBMODguMDAwOCA4NS40OTkxIEw4Ni41MDA3IDg0Ljk5OTEgTDc4LjAwMDcgNzguOTk5MSBMNjUuMDAwNyA2Ny40OTkxIEw1NS4wMDA3IDYwLjQ5OTEgTDU4LjAwMDAgNTEuMDAwMCBMNjIuOTk5OSA1NC4wMDAxIEw2Ni4wMDA3IDU5LjQ5OTEgTDg5LjAwMDggODAuOTk5MSBNODkuMDAwOCA4MC45OTkxIi8+JiN4YTsgIDxwYXRoIHN0eWxlPSJ0cmFuc2Zvcm0tb3JpZ2luOiA1MHB4IDUwcHg7IHRyYW5zZm9ybTogcm90YXRlKDBkZWcpIHNjYWxlWSgxLjExNzcxKSByb3RhdGUoMGRlZyk7IiBmaWxsPSIjRDk3NzU3IiBkPSJNODIuNTAwMyA1NS41MDAwIEw5NS4wMDAzIDU2LjUwMDAgTDk4LjAwMDMgNTguNTAwMCBMMTAwLjAwMDAgNjEuNTAwMCBMMTAwLjAwMDAgNjMuNjU4NyBMOTQuNTAwMyA2Ni4wMDAwIEw2Ni41MDA1IDU5LjAwMDAgTDU1LjAwMDMgNTguNTAwMCBMNTguMDAwMCA0OC4wMDAwIEw2Ni4wMDA1IDU0LjAwMDAgTDgyLjUwMDMgNTUuNTAwMCBNODIuNTAwMyA1NS41MDAwIi8+JiN4YTs8L3N2Zz4=;" parent="rjUGybNKrxxeA_Nx0cuD-41" vertex="1">
          <mxGeometry x="16" y="15.957446808510632" width="35.35" height="35" as="geometry" />
        </mxCell>
        <object label=" What&#39;s the best time to visit Sagrada Familia? " id="user-prompt">
          <mxCell style="verticalAlign=bottom;edgeStyle=elbowEdgeStyle;elbow=vertical;curved=0;rounded=0;endArrow=block;strokeWidth=3;strokeColor=light-dark(#FFFFFF,#FFFFFF);fontSize=19;" parent="1" target="rjUGybNKrxxeA_Nx0cuD-2" edge="1">
            <mxGeometry x="0.0186" y="-40" relative="1" as="geometry">
              <Array as="points" />
              <mxPoint x="99.5" y="150" as="sourcePoint" />
              <mxPoint x="320" y="150" as="targetPoint" />
              <mxPoint x="1" as="offset" />
            </mxGeometry>
          </mxCell>
        </object>
        <object label=" Prompt + Tool Context " id="prompt-tool-context">
          <mxCell style="verticalAlign=bottom;edgeStyle=elbowEdgeStyle;elbow=vertical;curved=0;rounded=0;endArrow=block;strokeWidth=3;strokeColor=light-dark(#FFFFFF,#FFFFFF);fontSize=19;" parent="1" source="rjUGybNKrxxeA_Nx0cuD-2" target="rjUGybNKrxxeA_Nx0cuD-3" edge="1">
            <mxGeometry x="0.034" y="-40" relative="1" as="geometry">
              <Array as="points">
                <mxPoint x="550" y="210" />
              </Array>
              <mxPoint x="410" y="980.33" as="sourcePoint" />
              <mxPoint x="705.5" y="980.33" as="targetPoint" />
              <mxPoint as="offset" />
            </mxGeometry>
          </mxCell>
        </object>
        <object label=" Tool Call Request " id="tool-call-request">
          <mxCell style="verticalAlign=bottom;edgeStyle=elbowEdgeStyle;elbow=vertical;curved=0;rounded=0;endArrow=block;strokeWidth=3;strokeColor=light-dark(#FFFFFF,#FFFFFF);fontSize=19;" parent="1" source="rjUGybNKrxxeA_Nx0cuD-3" target="rjUGybNKrxxeA_Nx0cuD-2" edge="1">
            <mxGeometry x="0.034" y="40" relative="1" as="geometry">
              <Array as="points">
                <mxPoint x="540" y="290" />
              </Array>
              <mxPoint x="500" y="980" as="sourcePoint" />
              <mxPoint x="795" y="980" as="targetPoint" />
              <mxPoint as="offset" />
            </mxGeometry>
          </mxCell>
        </object>
        <object label=" Tool Invocation " id="tool-invocation">
          <mxCell style="verticalAlign=bottom;edgeStyle=elbowEdgeStyle;elbow=vertical;curved=0;rounded=0;endArrow=block;strokeWidth=3;strokeColor=light-dark(#FFFFFF,#FFFFFF);fontSize=19;" parent="1" source="rjUGybNKrxxeA_Nx0cuD-2" target="rjUGybNKrxxeA_Nx0cuD-4" edge="1">
            <mxGeometry x="0.0237" y="-40" relative="1" as="geometry">
              <Array as="points">
                <mxPoint x="700" y="350" />
              </Array>
              <mxPoint x="680" y="980" as="sourcePoint" />
              <mxPoint x="975" y="980" as="targetPoint" />
              <mxPoint as="offset" />
            </mxGeometry>
          </mxCell>
        </object>
        <object label=" weather_forecast(&quot;BCN&quot;) " id="mcp-tool-call">
          <mxCell style="verticalAlign=bottom;edgeStyle=elbowEdgeStyle;elbow=vertical;curved=0;rounded=0;endArrow=block;strokeWidth=3;strokeColor=light-dark(#FFFFFF,#FFFFFF);fontSize=19;fontFamily=Courier New;" parent="1" source="rjUGybNKrxxeA_Nx0cuD-4" target="rjUGybNKrxxeA_Nx0cuD-5" edge="1">
            <mxGeometry x="0.0136" y="-40" relative="1" as="geometry">
              <Array as="points">
                <mxPoint x="1120" y="390" />
              </Array>
              <mxPoint x="990" y="840" as="sourcePoint" />
              <mxPoint x="1580" y="840" as="targetPoint" />
              <mxPoint as="offset" />
            </mxGeometry>
          </mxCell>
        </object>
        <object label=" Prompt + Tool Results " id="prompt-tool-results">
          <mxCell style="verticalAlign=bottom;edgeStyle=elbowEdgeStyle;elbow=vertical;curved=0;rounded=0;endArrow=block;strokeWidth=3;strokeColor=light-dark(#FFFFFF,#FFFFFF);fontSize=19;" parent="1" source="rjUGybNKrxxeA_Nx0cuD-2" target="rjUGybNKrxxeA_Nx0cuD-3" edge="1">
            <mxGeometry x="0.034" y="-40" relative="1" as="geometry">
              <Array as="points">
                <mxPoint x="540" y="600" />
              </Array>
              <mxPoint x="510" y="890" as="sourcePoint" />
              <mxPoint x="804" y="890" as="targetPoint" />
              <mxPoint as="offset" />
            </mxGeometry>
          </mxCell>
        </object>
        <object label=" GET /spain/bcn " id="api-service-request">
          <mxCell style="verticalAlign=bottom;edgeStyle=elbowEdgeStyle;elbow=vertical;curved=0;rounded=0;endArrow=block;strokeWidth=3;strokeColor=light-dark(#FFFFFF,#FFFFFF);fontSize=19;fontFamily=Courier New;" parent="1" source="rjUGybNKrxxeA_Nx0cuD-5" target="rjUGybNKrxxeA_Nx0cuD-6" edge="1">
            <mxGeometry x="0.034" y="-40" relative="1" as="geometry">
              <Array as="points">
                <mxPoint x="1410" y="450" />
              </Array>
              <mxPoint x="1380" y="480" as="sourcePoint" />
              <mxPoint x="1579.9999999999995" y="500.0000000000001" as="targetPoint" />
              <mxPoint as="offset" />
            </mxGeometry>
          </mxCell>
        </object>
        <object label="" id="api-service-response">
          <mxCell style="group" parent="1" vertex="1" connectable="0">
            <mxGeometry x="730" y="520" width="710" as="geometry" />
          </mxCell>
        </object>
        <mxCell id="rjUGybNKrxxeA_Nx0cuD-49" value=" thunderstorms;... " style="verticalAlign=bottom;edgeStyle=elbowEdgeStyle;elbow=vertical;curved=0;rounded=0;endArrow=block;strokeWidth=3;strokeColor=light-dark(#FFFFFF,#FFFFFF);fontSize=19;fontFamily=Courier New;" parent="api-service-response" source="rjUGybNKrxxeA_Nx0cuD-6" target="rjUGybNKrxxeA_Nx0cuD-5" edge="1">
          <mxGeometry x="-0.0346" y="40" relative="1" as="geometry">
            <Array as="points">
              <mxPoint x="710" />
            </Array>
            <mxPoint x="520" y="470.4" as="sourcePoint" />
            <mxPoint x="320" y="400" as="targetPoint" />
            <mxPoint as="offset" />
          </mxGeometry>
        </mxCell>
        <mxCell id="rjUGybNKrxxeA_Nx0cuD-50" value="" style="verticalAlign=bottom;edgeStyle=elbowEdgeStyle;elbow=vertical;curved=0;rounded=0;endArrow=block;strokeWidth=3;strokeColor=light-dark(#FFFFFF,#FFFFFF);fontSize=16;fontFamily=Courier New;" parent="api-service-response" source="rjUGybNKrxxeA_Nx0cuD-5" target="rjUGybNKrxxeA_Nx0cuD-4" edge="1">
          <mxGeometry x="-0.0346" y="40" relative="1" as="geometry">
            <Array as="points">
              <mxPoint x="430" />
            </Array>
            <mxPoint x="714" y="410" as="sourcePoint" />
            <mxPoint x="420" y="410" as="targetPoint" />
            <mxPoint as="offset" />
          </mxGeometry>
        </mxCell>
        <mxCell id="rjUGybNKrxxeA_Nx0cuD-51" value="" style="verticalAlign=bottom;edgeStyle=elbowEdgeStyle;elbow=vertical;curved=0;rounded=0;endArrow=block;strokeWidth=3;strokeColor=light-dark(#FFFFFF,#FFFFFF);fontSize=16;fontFamily=Courier New;" parent="api-service-response" source="rjUGybNKrxxeA_Nx0cuD-4" target="rjUGybNKrxxeA_Nx0cuD-2" edge="1">
          <mxGeometry x="-0.0346" y="40" relative="1" as="geometry">
            <Array as="points">
              <mxPoint />
            </Array>
            <mxPoint x="394" y="310" as="sourcePoint" />
            <mxPoint x="100" y="310" as="targetPoint" />
            <mxPoint as="offset" />
          </mxGeometry>
        </mxCell>
        <object label="" id="llm-final-response">
          <mxCell style="group" parent="1" vertex="1" connectable="0">
            <mxGeometry x="290" y="680" width="260" as="geometry" />
          </mxCell>
        </object>
        <mxCell id="rjUGybNKrxxeA_Nx0cuD-53" value=" Visit on Thursday when weather improves " style="verticalAlign=bottom;edgeStyle=elbowEdgeStyle;elbow=vertical;curved=0;rounded=0;endArrow=block;strokeWidth=3;strokeColor=light-dark(#FFFFFF,#FFFFFF);fontSize=19;" parent="llm-final-response" source="rjUGybNKrxxeA_Nx0cuD-3" target="rjUGybNKrxxeA_Nx0cuD-2" edge="1">
          <mxGeometry x="-0.0346" y="40" relative="1" as="geometry">
            <Array as="points">
              <mxPoint x="260" />
            </Array>
            <mxPoint x="454" y="220" as="sourcePoint" />
            <mxPoint x="160" y="220" as="targetPoint" />
            <mxPoint as="offset" />
          </mxGeometry>
        </mxCell>
        <mxCell id="rjUGybNKrxxeA_Nx0cuD-54" value="" style="verticalAlign=bottom;edgeStyle=elbowEdgeStyle;elbow=vertical;curved=0;rounded=0;endArrow=block;strokeWidth=3;strokeColor=light-dark(#FFFFFF,#FFFFFF);fontSize=16;fontFamily=Courier New;" parent="llm-final-response" source="rjUGybNKrxxeA_Nx0cuD-2" target="rjUGybNKrxxeA_Nx0cuD-1" edge="1">
          <mxGeometry x="-0.0346" y="40" relative="1" as="geometry">
            <Array as="points">
              <mxPoint />
            </Array>
            <mxPoint x="70" y="80" as="sourcePoint" />
            <mxPoint x="480" y="300" as="targetPoint" />
            <mxPoint as="offset" />
          </mxGeometry>
        </mxCell>
      </root>
    </mxGraphModel>
  </diagram>
</mxfile>
